<svg width="31" height="30" viewBox="0 0 31 30" fill="none" xmlns="http://www.w3.org/2000/svg">
<path d="M17.2188 21.0938C17.2188 21.4646 17.1088 21.8271 16.9028 22.1354C16.6967 22.4438 16.4039 22.6841 16.0613 22.826C15.7187 22.9679 15.3417 23.0051 14.978 22.9327C14.6142 22.8604 14.2802 22.6818 14.0179 22.4196C13.7557 22.1574 13.5771 21.8233 13.5048 21.4595C13.4324 21.0958 13.4696 20.7188 13.6115 20.3762C13.7534 20.0336 13.9937 19.7408 14.3021 19.5347C14.6104 19.3287 14.9729 19.2188 15.3438 19.2188C15.841 19.2188 16.3179 19.4163 16.6696 19.7679C17.0212 20.1196 17.2188 20.5965 17.2188 21.0938ZM28 15C28 17.5032 27.2577 19.9501 25.867 22.0314C24.4764 24.1127 22.4997 25.7349 20.1871 26.6929C17.8745 27.6508 15.3297 27.9014 12.8746 27.4131C10.4196 26.9247 8.16444 25.7193 6.39444 23.9493C4.62443 22.1793 3.41904 19.9242 2.93069 17.4691C2.44235 15.014 2.69298 12.4693 3.65091 10.1567C4.60883 7.84404 6.23101 5.8674 8.31232 4.47671C10.3936 3.08603 12.8406 2.34375 15.3438 2.34375C18.6993 2.34747 21.9163 3.68209 24.289 6.05479C26.6617 8.42749 27.9963 11.6445 28 15ZM25.1875 15C25.1875 13.0531 24.6102 11.1499 23.5285 9.53111C22.4469 7.91231 20.9095 6.65061 19.1108 5.90556C17.3121 5.16051 15.3328 4.96557 13.4233 5.34539C11.5138 5.72522 9.75985 6.66274 8.38317 8.03942C7.0065 9.41609 6.06897 11.1701 5.68915 13.0796C5.30933 14.9891 5.50427 16.9683 6.24932 18.767C6.99437 20.5658 8.25606 22.1031 9.87486 23.1848C11.4937 24.2664 13.3968 24.8438 15.3438 24.8438C17.9536 24.841 20.4558 23.803 22.3013 21.9575C24.1467 20.112 25.1847 17.6099 25.1875 15ZM15.3438 7.5C12.5008 7.5 10.1875 9.60234 10.1875 12.1875V12.6562C10.1875 13.0292 10.3357 13.3869 10.5994 13.6506C10.8631 13.9143 11.2208 14.0625 11.5938 14.0625C11.9667 14.0625 12.3244 13.9143 12.5881 13.6506C12.8518 13.3869 13 13.0292 13 12.6562V12.1875C13 11.1539 14.0547 10.3125 15.3438 10.3125C16.6328 10.3125 17.6875 11.1539 17.6875 12.1875C17.6875 13.2211 16.6328 14.0625 15.3438 14.0625C14.9708 14.0625 14.6131 14.2107 14.3494 14.4744C14.0857 14.7381 13.9375 15.0958 13.9375 15.4688V16.4062C13.9367 16.7537 14.0645 17.0891 14.2963 17.3479C14.5281 17.6067 14.8475 17.7705 15.1929 17.8078C15.5383 17.845 15.8853 17.7531 16.167 17.5497C16.4487 17.3463 16.6451 17.0459 16.7184 16.7062C18.8957 16.1578 20.5 14.3402 20.5 12.1875C20.5 9.60234 18.1867 7.5 15.3438 7.5Z" fill="black"/>
</svg>
