<svg width="31" height="30" viewBox="0 0 31 30" fill="none" xmlns="http://www.w3.org/2000/svg">
<g clip-path="url(#clip0_173_51)">
<path d="M30.3438 15.9375C30.3438 16.3104 30.1956 16.6681 29.9319 16.9318C29.6682 17.1956 29.3105 17.3437 28.9375 17.3437H28V18.2812C28 18.6542 27.8519 19.0119 27.5881 19.2756C27.3244 19.5393 26.9667 19.6875 26.5938 19.6875C26.2208 19.6875 25.8631 19.5393 25.5994 19.2756C25.3357 19.0119 25.1875 18.6542 25.1875 18.2812V17.3437H24.25C23.8771 17.3437 23.5194 17.1956 23.2557 16.9318C22.9919 16.6681 22.8438 16.3104 22.8438 15.9375C22.8438 15.5645 22.9919 15.2068 23.2557 14.9431C23.5194 14.6794 23.8771 14.5312 24.25 14.5312H25.1875V13.5937C25.1875 13.2208 25.3357 12.8631 25.5994 12.5994C25.8631 12.3356 26.2208 12.1875 26.5938 12.1875C26.9667 12.1875 27.3244 12.3356 27.5881 12.5994C27.8519 12.8631 28 13.2208 28 13.5937V14.5312H28.9375C29.3105 14.5312 29.6682 14.6794 29.9319 14.9431C30.1956 15.2068 30.3438 15.5645 30.3438 15.9375ZM23.9207 22.5328C24.1607 22.8184 24.2773 23.1877 24.245 23.5593C24.2127 23.9309 24.0341 24.2745 23.7485 24.5144C23.4628 24.7544 23.0936 24.871 22.722 24.8387C22.3503 24.8064 22.0068 24.6278 21.7668 24.3422C20.1625 22.432 17.336 20.1562 13 20.1562C9.61448 20.1562 6.50081 21.6422 4.23323 24.3422C3.99329 24.6278 3.64972 24.8064 3.27809 24.8387C2.90646 24.871 2.53721 24.7544 2.25159 24.5144C1.96596 24.2745 1.78735 23.9309 1.75504 23.5593C1.72274 23.1877 1.83938 22.8184 2.07932 22.5328C3.60713 20.6876 5.56716 19.2485 7.78518 18.3433C6.40592 17.259 5.399 15.7716 4.90454 14.0882C4.41008 12.4049 4.45267 10.6092 5.0264 8.95122C5.60013 7.29319 6.67644 5.85525 8.10557 4.8375C9.5347 3.81976 11.2455 3.27283 13 3.27283C14.7545 3.27283 16.4654 3.81976 17.8945 4.8375C19.3236 5.85525 20.3999 7.29319 20.9737 8.95122C21.5474 10.6092 21.59 12.4049 21.0955 14.0882C20.6011 15.7716 19.5941 17.259 18.2149 18.3433C20.4331 19.2481 22.3932 20.6873 23.9207 22.5328ZM13 17.3437C14.1125 17.3437 15.2001 17.0138 16.1251 16.3957C17.0501 15.7777 17.7711 14.8992 18.1968 13.8713C18.6226 12.8435 18.734 11.7125 18.5169 10.6213C18.2999 9.5302 17.7642 8.52792 16.9775 7.74125C16.1908 6.95458 15.1886 6.41885 14.0974 6.20181C13.0063 5.98477 11.8753 6.09616 10.8474 6.5219C9.8196 6.94765 8.94109 7.66862 8.32301 8.59364C7.70493 9.51867 7.37503 10.6062 7.37503 11.7187C7.37658 13.2101 7.96971 14.6399 9.02426 15.6945C10.0788 16.749 11.5087 17.3422 13 17.3437Z" fill="black"/>
</g>
<defs>
<clipPath id="clip0_173_51">
<rect width="30" height="30" fill="white" transform="translate(0.34375)"/>
</clipPath>
</defs>
</svg>
