<svg width="31" height="31" viewBox="0 0 31 31" fill="none" xmlns="http://www.w3.org/2000/svg">
<path d="M26.9655 7.04661C25.6047 5.68978 23.7622 4.92659 21.8406 4.92373C19.9189 4.92088 18.0742 5.67859 16.7093 7.03137L15.4999 8.15403L14.2905 7.03137C12.9261 5.67038 11.0769 4.90713 9.14979 4.90955C7.22263 4.91197 5.37537 5.67985 4.01437 7.04426C2.65338 8.40868 1.89014 10.2579 1.89255 12.185C1.89497 14.1122 2.66285 15.9594 4.02726 17.3204L14.498 27.9435C14.6288 28.0763 14.7848 28.1819 14.9568 28.2539C15.1288 28.3259 15.3134 28.363 15.4999 28.363C15.6864 28.363 15.871 28.3259 16.043 28.2539C16.2151 28.1819 16.371 28.0763 16.5019 27.9435L26.9655 17.3275C27.6405 16.6527 28.176 15.8517 28.5413 14.9699C28.9067 14.0882 29.0947 13.1432 29.0947 12.1888C29.0947 11.2344 28.9067 10.2893 28.5413 9.40764C28.176 8.52593 27.6405 7.72484 26.9655 7.05012V7.04661ZM24.9734 15.3423L15.4999 24.9493L6.02297 15.3341C5.1907 14.4984 4.72398 13.3666 4.7252 12.1872C4.72642 11.0077 5.19549 9.87696 6.02948 9.04297C6.86348 8.20897 7.99426 7.7399 9.17371 7.73868C10.3531 7.73746 11.4849 8.20419 12.3206 9.03645C12.3323 9.04817 12.3441 9.05989 12.357 9.07043L14.5413 11.1048C14.8016 11.3473 15.1442 11.4822 15.4999 11.4822C15.8557 11.4822 16.1982 11.3473 16.4585 11.1048L18.6429 9.07043C18.6558 9.05989 18.6675 9.04817 18.6792 9.03645C19.0933 8.6234 19.5846 8.29595 20.1252 8.07279C20.6658 7.84964 21.2451 7.73514 21.8299 7.73585C22.4148 7.73656 22.9937 7.85245 23.5338 8.07692C24.0739 8.30138 24.5644 8.63002 24.9775 9.04407C25.3905 9.45812 25.718 9.94946 25.9411 10.4901C26.1643 11.0307 26.2788 11.6099 26.2781 12.1948C26.2774 12.7796 26.1615 13.3586 25.937 13.8986C25.7125 14.4387 25.3839 14.9293 24.9698 15.3423H24.9734Z" fill="black"/>
</svg>
