<svg width="30" height="31" viewBox="0 0 30 31" fill="none" xmlns="http://www.w3.org/2000/svg">
<path d="M25.9641 12.3184L16.5949 3.47421L16.5762 3.45664C16.1456 3.06259 15.5831 2.84406 14.9994 2.84406C14.4157 2.84406 13.8532 3.06259 13.4227 3.45664L13.4027 3.47421L4.03594 12.3184C3.7984 12.5381 3.60877 12.8046 3.47891 13.101C3.34905 13.3974 3.28176 13.7174 3.28125 14.041V24.875C3.28125 25.4966 3.52818 26.0927 3.96772 26.5323C4.40726 26.9718 5.0034 27.2187 5.625 27.2187H11.25C11.8716 27.2187 12.4677 26.9718 12.9073 26.5323C13.3468 26.0927 13.5938 25.4966 13.5938 24.875V19.7187H16.4062V24.875C16.4062 25.4966 16.6532 26.0927 17.0927 26.5323C17.5323 26.9718 18.1284 27.2187 18.75 27.2187H24.375C24.9966 27.2187 25.5927 26.9718 26.0323 26.5323C26.4718 26.0927 26.7188 25.4966 26.7188 24.875V14.041C26.7182 13.7174 26.6509 13.3974 26.5211 13.101C26.3912 12.8046 26.2016 12.5381 25.9641 12.3184ZM23.9062 24.4062H19.2188V19.25C19.2188 18.9422 19.1581 18.6374 19.0403 18.3531C18.9226 18.0687 18.7499 17.8104 18.5323 17.5927C18.3146 17.3751 18.0563 17.2024 17.7719 17.0847C17.4876 16.9669 17.1828 16.9062 16.875 16.9062H13.125C12.5034 16.9062 11.9073 17.1532 11.4677 17.5927C11.0282 18.0323 10.7812 18.6284 10.7812 19.25V24.4062H6.09375V14.2437L15 5.83554L23.9062 14.2437V24.4062Z" fill="black"/>
</svg>
