<svg width="25" height="25" viewBox="0 0 25 25" fill="none" xmlns="http://www.w3.org/2000/svg">
<path d="M22.4277 21.3222L17.5381 16.4336C18.9553 14.7321 19.662 12.5498 19.5112 10.3405C19.3603 8.1313 18.3636 6.06527 16.7283 4.57222C15.093 3.07917 12.945 2.27405 10.7312 2.32437C8.51736 2.37468 6.40818 3.27654 4.84237 4.84234C3.27657 6.40814 2.37471 8.51733 2.3244 10.7311C2.27409 12.9449 3.0792 15.0929 4.57225 16.7282C6.0653 18.3636 8.13134 19.3603 10.3406 19.5111C12.5498 19.662 14.7321 18.9553 16.4336 17.5381L21.3223 22.4277C21.3949 22.5003 21.481 22.5579 21.5759 22.5972C21.6707 22.6364 21.7724 22.6567 21.875 22.6567C21.9777 22.6567 22.0793 22.6364 22.1741 22.5972C22.269 22.5579 22.3552 22.5003 22.4277 22.4277C22.5003 22.3551 22.5579 22.269 22.5972 22.1741C22.6365 22.0793 22.6567 21.9776 22.6567 21.875C22.6567 21.7723 22.6365 21.6707 22.5972 21.5758C22.5579 21.481 22.5003 21.3948 22.4277 21.3222ZM3.90626 10.9375C3.90626 9.54683 4.31863 8.18741 5.09124 7.03113C5.86384 5.87484 6.96197 4.97363 8.24677 4.44145C9.53156 3.90927 10.9453 3.77003 12.3092 4.04133C13.6732 4.31263 14.926 4.9823 15.9094 5.96563C16.8927 6.94897 17.5624 8.20182 17.8337 9.56575C18.105 10.9297 17.9657 12.3434 17.4335 13.6282C16.9014 14.913 16.0001 16.0111 14.8439 16.7838C13.6876 17.5564 12.3282 17.9687 10.9375 17.9687C9.07334 17.9667 7.28612 17.2252 5.96795 15.907C4.64978 14.5889 3.90833 12.8016 3.90626 10.9375Z" fill="black"/>
</svg>
