<svg width="30" height="31" viewBox="0 0 30 31" fill="none" xmlns="http://www.w3.org/2000/svg">
<path d="M25.3125 4.5155H4.6875C4.0659 4.5155 3.46976 4.76243 3.03022 5.20197C2.59068 5.64151 2.34375 6.23765 2.34375 6.85925V23.7343C2.34375 24.3559 2.59068 24.952 3.03022 25.3915C3.46976 25.8311 4.0659 26.078 4.6875 26.078H25.3125C25.9341 26.078 26.5302 25.8311 26.9698 25.3915C27.4093 24.952 27.6562 24.3559 27.6562 23.7343V6.85925C27.6562 6.23765 27.4093 5.64151 26.9698 5.20197C26.5302 4.76243 25.9341 4.5155 25.3125 4.5155ZM24.8438 23.2655H5.15625V7.328H24.8438V23.2655ZM8.90625 10.6093C8.90625 10.2363 9.05441 9.87861 9.31813 9.61488C9.58185 9.35116 9.93954 9.203 10.3125 9.203C10.6855 9.203 11.0431 9.35116 11.3069 9.61488C11.5706 9.87861 11.7188 10.2363 11.7188 10.6093C11.7188 11.4795 12.0645 12.3141 12.6798 12.9294C13.2952 13.5448 14.1298 13.8905 15 13.8905C15.8702 13.8905 16.7048 13.5448 17.3202 12.9294C17.9355 12.3141 18.2812 11.4795 18.2812 10.6093C18.2812 10.2363 18.4294 9.87861 18.6931 9.61488C18.9569 9.35116 19.3145 9.203 19.6875 9.203C20.0605 9.203 20.4181 9.35116 20.6819 9.61488C20.9456 9.87861 21.0938 10.2363 21.0938 10.6093C21.0938 12.2254 20.4517 13.7754 19.3089 14.9182C18.1661 16.061 16.6162 16.703 15 16.703C13.3838 16.703 11.8339 16.061 10.6911 14.9182C9.54827 13.7754 8.90625 12.2254 8.90625 10.6093Z" fill="black"/>
</svg>
