<svg width="30" height="30" viewBox="0 0 30 30" fill="none" xmlns="http://www.w3.org/2000/svg">
<path d="M27.4664 24.6094C25.8597 21.7895 23.3508 19.5923 20.3437 18.3715C21.8391 17.2499 22.9438 15.6863 23.5011 13.902C24.0585 12.1178 24.0403 10.2034 23.4492 8.43009C22.8581 6.65675 21.724 5.11434 20.2076 4.02136C18.6911 2.92839 16.8692 2.34024 15 2.34024C13.1307 2.34024 11.3088 2.92839 9.7924 4.02136C8.27597 5.11434 7.14188 6.65675 6.55077 8.43009C5.95965 10.2034 5.94148 12.1178 6.49884 13.902C7.05619 15.6863 8.16081 17.2499 9.65623 18.3715C6.6491 19.5923 4.14026 21.7895 2.53357 24.6094C2.43401 24.7695 2.36766 24.9479 2.33845 25.1342C2.30925 25.3204 2.31778 25.5106 2.36356 25.6935C2.40933 25.8764 2.4914 26.0482 2.6049 26.1987C2.7184 26.3492 2.861 26.4754 3.02423 26.5697C3.18746 26.664 3.36798 26.7245 3.55507 26.7476C3.74216 26.7708 3.93199 26.7561 4.11328 26.7044C4.29457 26.6527 4.46362 26.5651 4.61037 26.4468C4.75713 26.3285 4.8786 26.1818 4.96755 26.0156C7.09099 22.3453 10.841 20.1563 15 20.1563C19.159 20.1563 22.909 22.3465 25.0324 26.0156C25.2252 26.3256 25.531 26.5485 25.8851 26.6371C26.2392 26.7258 26.614 26.6732 26.93 26.4906C27.2461 26.308 27.4788 26.0096 27.5789 25.6585C27.679 25.3075 27.6386 24.9312 27.4664 24.6094ZM8.90623 11.25C8.90623 10.0448 9.26362 8.86661 9.93321 7.8645C10.6028 6.86239 11.5545 6.08134 12.668 5.62012C13.7815 5.15889 15.0067 5.03822 16.1888 5.27335C17.3709 5.50847 18.4567 6.08885 19.3089 6.94107C20.1611 7.7933 20.7415 8.8791 20.9766 10.0612C21.2118 11.2432 21.0911 12.4685 20.6299 13.582C20.1686 14.6955 19.3876 15.6472 18.3855 16.3168C17.3834 16.9864 16.2052 17.3438 15 17.3438C13.3844 17.3419 11.8355 16.6993 10.6931 15.5569C9.5507 14.4145 8.90809 12.8656 8.90623 11.25Z" fill="#009BFF"/>
</svg>
