<svg width="31" height="30" viewBox="0 0 31 30" fill="none" xmlns="http://www.w3.org/2000/svg">
<path d="M13 9.84375C13 9.47291 13.11 9.1104 13.316 8.80206C13.522 8.49371 13.8149 8.25339 14.1575 8.11148C14.5001 7.96956 14.8771 7.93243 15.2408 8.00478C15.6045 8.07712 15.9386 8.2557 16.2008 8.51793C16.4631 8.78015 16.6416 9.11424 16.714 9.47796C16.7863 9.84167 16.7492 10.2187 16.6073 10.5613C16.4654 10.9039 16.225 11.1967 15.9167 11.4028C15.6084 11.6088 15.2458 11.7188 14.875 11.7188C14.3777 11.7188 13.9008 11.5212 13.5492 11.1696C13.1975 10.8179 13 10.341 13 9.84375ZM28 15C28 17.5032 27.2577 19.9501 25.867 22.0314C24.4764 24.1127 22.4997 25.7349 20.1871 26.6929C17.8745 27.6508 15.3297 27.9014 12.8746 27.4131C10.4196 26.9247 8.16444 25.7193 6.39444 23.9493C4.62443 22.1793 3.41904 19.9242 2.93069 17.4691C2.44235 15.014 2.69298 12.4693 3.65091 10.1567C4.60883 7.84404 6.23101 5.8674 8.31232 4.47671C10.3936 3.08603 12.8406 2.34375 15.3438 2.34375C18.6993 2.34747 21.9163 3.68209 24.289 6.05479C26.6617 8.42749 27.9963 11.6445 28 15ZM25.1875 15C25.1875 13.0531 24.6102 11.1499 23.5285 9.53111C22.4469 7.91231 20.9095 6.65061 19.1108 5.90556C17.3121 5.16051 15.3328 4.96557 13.4233 5.34539C11.5138 5.72522 9.75985 6.66274 8.38317 8.03942C7.0065 9.41609 6.06897 11.1701 5.68915 13.0796C5.30933 14.9891 5.50427 16.9683 6.24932 18.767C6.99437 20.5658 8.25606 22.1031 9.87486 23.1848C11.4937 24.2664 13.3968 24.8438 15.3438 24.8438C17.9536 24.841 20.4558 23.803 22.3013 21.9575C24.1467 20.112 25.1847 17.6099 25.1875 15ZM16.75 19.2984V15.4688C16.75 14.8471 16.5031 14.251 16.0635 13.8115C15.624 13.3719 15.0279 13.125 14.4063 13.125C14.0742 13.1245 13.7526 13.2416 13.4985 13.4554C13.2445 13.6693 13.0743 13.9662 13.0182 14.2935C12.962 14.6208 13.0235 14.9575 13.1918 15.2438C13.3601 15.5301 13.6242 15.7476 13.9375 15.8578V19.6875C13.9375 20.3091 14.1844 20.9052 14.624 21.3448C15.0635 21.7843 15.6597 22.0312 16.2813 22.0312C16.6134 22.0317 16.9349 21.9147 17.189 21.7008C17.443 21.4869 17.6132 21.1901 17.6694 20.8627C17.7255 20.5354 17.664 20.1988 17.4957 19.9125C17.3275 19.6262 17.0633 19.4086 16.75 19.2984Z" fill="black"/>
</svg>
