<svg width="40" height="40" viewBox="0 0 40 40" fill="none" xmlns="http://www.w3.org/2000/svg">
<path d="M36.6218 32.8125C34.4795 29.0527 31.1344 26.1231 27.1249 24.4954C29.1188 22.9999 30.5916 20.9151 31.3347 18.5361C32.0779 16.1571 32.0537 13.6046 31.2655 11.2402C30.4773 8.8757 28.9652 6.81917 26.9433 5.36186C24.9214 3.90455 22.4922 3.12036 19.9999 3.12036C17.5075 3.12036 15.0784 3.90455 13.0565 5.36186C11.0345 6.81917 9.52242 8.8757 8.73427 11.2402C7.94612 13.6046 7.9219 16.1571 8.66504 18.5361C9.40818 20.9151 10.881 22.9999 12.8749 24.4954C8.86539 26.1231 5.52027 29.0527 3.37801 32.8125C3.24527 33.026 3.1568 33.2639 3.11785 33.5123C3.07891 33.7606 3.0903 34.0142 3.15133 34.258C3.21236 34.5018 3.32179 34.7309 3.47312 34.9316C3.62445 35.1323 3.81458 35.3005 4.03222 35.4263C4.24986 35.552 4.49056 35.6327 4.74001 35.6636C4.98946 35.6944 5.24257 35.6748 5.48429 35.6059C5.72601 35.537 5.95141 35.4202 6.14708 35.2624C6.34276 35.1046 6.50471 34.9092 6.62332 34.6875C9.45457 29.7938 14.4546 26.875 19.9999 26.875C25.5452 26.875 30.5452 29.7954 33.3764 34.6875C33.6335 35.1009 34.0412 35.398 34.5134 35.5162C34.9856 35.6344 35.4852 35.5644 35.9066 35.3209C36.3281 35.0774 36.6384 34.6795 36.7718 34.2114C36.9053 33.7433 36.8514 33.2417 36.6218 32.8125ZM11.8749 15C11.8749 13.3931 12.3514 11.8222 13.2442 10.486C14.137 9.14989 15.4059 8.10849 16.8906 7.49353C18.3752 6.87857 20.0089 6.71766 21.585 7.03117C23.1611 7.34467 24.6088 8.1185 25.7451 9.25481C26.8814 10.3911 27.6553 11.8388 27.9688 13.4149C28.2823 14.991 28.1214 16.6247 27.5064 18.1094C26.8914 19.594 25.85 20.863 24.5139 21.7557C23.1777 22.6485 21.6069 23.125 19.9999 23.125C17.8458 23.1226 15.7806 22.2657 14.2574 20.7425C12.7342 19.2194 11.8774 17.1542 11.8749 15Z" fill="black"/>
</svg>
