<svg width="375" height="129" viewBox="0 0 375 129" fill="none" xmlns="http://www.w3.org/2000/svg">
<path d="M430.726 103.454C431.123 103.648 431.467 103.831 431.763 104C431.467 104.169 431.123 104.352 430.726 104.546C427.895 105.929 423.409 107.398 417.203 108.865C404.873 111.78 386.824 114.448 364.279 116.702C319.25 121.205 256.924 124 188 124C119.076 124 56.7502 121.205 11.7208 116.702C-10.824 114.448 -28.8733 111.78 -41.2033 108.865C-47.4088 107.398 -51.8951 105.929 -54.7256 104.546C-55.1232 104.352 -55.4672 104.169 -55.7633 104C-55.4672 103.831 -55.1232 103.648 -54.7256 103.454C-51.8951 102.071 -47.4088 100.602 -41.2033 99.1347C-28.8733 96.2196 -10.824 93.552 11.7208 91.2975C56.7502 86.7946 119.076 84 188 84C256.924 84 319.25 86.7946 364.279 91.2975C386.824 93.552 404.873 96.2196 417.203 99.1347C423.409 100.602 427.895 102.071 430.726 103.454ZM-57.2989 102.889C-57.2989 102.889 -57.2979 102.89 -57.2961 102.893C-57.298 102.89 -57.2989 102.889 -57.2989 102.889ZM-57.2989 105.111C-57.2989 105.111 -57.298 105.11 -57.2961 105.107C-57.2979 105.11 -57.2989 105.111 -57.2989 105.111Z" fill="#009BFF" stroke="#00D1FF" stroke-width="10"/>
<rect width="375" height="110" fill="#009BFF"/>
</svg>
